<svg xmlns="http://www.w3.org/2000/svg" viewBox="0 0 212.29 254.66"><defs><style>.cls-1{fill:#fbb03b;}</style></defs><g id="Layer_2" data-name="Layer 2"><g id="Layer_1-2" data-name="Layer 1"><path class="cls-1" d="M105.88,254.66a37,37,0,0,0,33.64-21.17H72.83A37,37,0,0,0,105.88,254.66Z"/><path class="cls-1" d="M211.13,214c-6.64-11.31-13.59-22.45-20-33.88a83.6,83.6,0,0,1-10.5-39.84c-.18-9.43-.09-18.86-.08-28.28a72.15,72.15,0,0,0-7.86-33.71c-9.51-18.37-24.05-31-43.84-37.49a1.78,1.78,0,0,1-1.44-2.08c0-6.11.21-12.23-.07-18.33-.4-8.54-4.66-14.76-12.42-18.39a45.36,45.36,0,0,0-6.6-2H104a40.1,40.1,0,0,0-4.66,1.14C90.11,4.63,85,12.08,84.93,22c0,5.54-.06,11.09,0,16.63,0,1.4-.47,1.9-1.74,2.31C67.36,46,54.78,55.52,45.19,69A69.73,69.73,0,0,0,32,107.31c-.38,9.84-.1,19.7-.26,29.55A120.69,120.69,0,0,1,31,149.61a89.07,89.07,0,0,1-12.54,35.62q-8.7,14.42-17.35,28.86a5.89,5.89,0,0,0-.79,5.27c.83,2.36,2.78,3.47,6.06,3.47H206a13.47,13.47,0,0,0,1.42,0c2.84-.29,4.9-2.21,4.89-4.95A8,8,0,0,0,211.13,214ZM106.77,35.71A13.25,13.25,0,1,1,120,22.46,13.24,13.24,0,0,1,106.77,35.71Z"/></g></g></svg>