<svg xmlns="http://www.w3.org/2000/svg" viewBox="0 0 251.54 251.53"><defs><style>.cls-1{fill:#59b4b0;}</style></defs><g id="Layer_2" data-name="Layer 2"><g id="Layer_1-2" data-name="Layer 1"><path class="cls-1" d="M224.44,251.53H27.09c-.45-.1-.9-.21-1.36-.27A28.45,28.45,0,0,1,12.31,246C4,239.78,0,231.4,0,221.08q0-85.46,0-170.9a35.08,35.08,0,0,1,.18-4.35A29.18,29.18,0,0,1,25.8,20c4.52-.55,9.15-.25,13.73-.34h1.74c0-5.93,0-11.68,0-17.43,0-.74-.09-1.48-.13-2.22H61.06a4.66,4.66,0,0,0-.13.82q0,9,0,18a5.33,5.33,0,0,0,.1.79H190.61c0-5.84,0-11.59,0-17.34,0-.74-.08-1.48-.13-2.22H210.4a5.82,5.82,0,0,0-.13.82c0,6,0,12,0,18a6.87,6.87,0,0,0,.12.87H212c3.84,0,7.68-.09,11.51.07a28,28,0,0,1,15.77,5.55c8.37,6.23,12.26,14.67,12.26,25.05q0,85.23,0,170.48a30.41,30.41,0,0,1-.18,4.48c-1.76,11.82-8.1,20.1-19.3,24.42A59.7,59.7,0,0,1,224.44,251.53ZM19.65,92.44v1.45q0,63.57,0,127.14a13.74,13.74,0,0,0,.33,3.33c1.25,4.84,5,7.51,10.47,7.51H221c6.76,0,10.83-4.05,10.83-10.83q0-63.57,0-127.14c0-.49-.05-1-.08-1.46Zm0-19.84H231.82c0-8,.19-15.92-.06-23.82-.19-5.8-4.41-9.44-10.25-9.48-3.32,0-6.64,0-10,0-.4,0-.8.06-1.32.09v19.5H190.6V39.41H60.88V58.89H41.25V39.41c-4.42,0-8.69-.26-12.91.07a9.18,9.18,0,0,0-8.56,9c-.23,4.38-.11,8.79-.12,13.18C19.64,65.29,19.65,68.89,19.65,72.6Z"/><path class="cls-1" d="M37.47,113.06H56.88v19.46H37.47Z"/><path class="cls-1" d="M96.19,132.57H76.77V113.08H96.19Z"/><path class="cls-1" d="M116,132.51V113.09h19.47v19.42Z"/><path class="cls-1" d="M174.82,113.12v19.42H155.36V113.12Z"/><path class="cls-1" d="M214.06,132.57H194.64V113.11h19.42Z"/><path class="cls-1" d="M37.46,152.36H56.89v19.47H37.46Z"/><path class="cls-1" d="M76.7,171.81V152.39H96.17v19.42Z"/><path class="cls-1" d="M135.52,152.42v19.42H116.05V152.42Z"/><path class="cls-1" d="M174.76,171.88H155.34V152.41h19.42Z"/><path class="cls-1" d="M194.67,152.36h19.42v19.47H194.67Z"/><path class="cls-1" d="M37.42,211.13V191.68H56.89v19.45Z"/><path class="cls-1" d="M96.22,191.72v19.42H76.75V191.72Z"/><path class="cls-1" d="M116,191.65h19.46v19.47H116Z"/><path class="cls-1" d="M174.76,211.18H155.34V191.71h19.42Z"/></g></g></svg>