<svg xmlns="http://www.w3.org/2000/svg" viewBox="0 0 252 252"><defs><style>.cls-1{fill:#fff;}</style></defs><g id="Layer_2" data-name="Layer 2"><g id="Layer_1-2" data-name="Layer 1"><path class="cls-1" d="M127.5,207H22.5a22.5,22.5,0,0,0,0,45h105a22.5,22.5,0,0,0,0-45Z"/><path class="cls-1" d="M229.5,0H22.5a22.5,22.5,0,0,0,0,45h207a22.5,22.5,0,0,0,0-45Z"/><path class="cls-1" d="M229.5,69H22.5a22.5,22.5,0,0,0,0,45h207a22.5,22.5,0,0,0,0-45Z"/><path class="cls-1" d="M229.5,138H22.5a22.5,22.5,0,0,0,0,45h207a22.5,22.5,0,0,0,0-45Z"/></g></g></svg>