<svg xmlns="http://www.w3.org/2000/svg" viewBox="0 0 253.79 188.88"><defs><style>.cls-1{fill:#c1c1c1;}</style></defs><g id="Layer_2" data-name="Layer 2"><g id="Layer_1-2" data-name="Layer 1"><path class="cls-1" d="M94,23.06a71.53,71.53,0,0,1,59.13,31.06,12,12,0,0,0,8.92,5.55c7.58.86,14.12-6.48,12.23-13.92a14.11,14.11,0,0,0-2-4.47,93.05,93.05,0,0,0-43.6-34.77A91.81,91.81,0,0,0,87.77.27Q50.45,3.11,25,30.58a90.69,90.69,0,0,0-23.4,47c-4.61,26.7.95,51.25,17.09,73C33.54,170.68,53.5,183,78.2,187.41a92.22,92.22,0,0,0,50.47-5,93.84,93.84,0,0,0,43.09-33.94c2.45-3.46,3.48-7.14,2.17-11.2a10.82,10.82,0,0,0-8.76-7.75c-4.18-.77-8,.32-10.68,3.72-3.78,4.78-7.42,9.66-12,13.77A70.66,70.66,0,0,1,104.37,165a69.6,69.6,0,0,1-37.18-4.66,70.35,70.35,0,0,1-35.75-32.48,68.54,68.54,0,0,1-8.27-37C24.32,70.79,32.51,54,47.65,40.63A70.22,70.22,0,0,1,87.38,23.41C89.58,23.17,91.81,23.17,94,23.06Z"/><path class="cls-1" d="M214.39,82.85H81.74c-5.11,0-9,2-11.4,6.66-3.44,6.8,1.33,15.52,8.89,16.3,1.13.11,2.26.18,3.39.18H214.26c-.56.6-.89,1-1.24,1.33-4.8,4.87-9.7,9.66-14.38,14.66-3,3.26-3.37,8.37-1.19,12.44a11.57,11.57,0,0,0,11.1,6.14,12.06,12.06,0,0,0,7.6-3.7q17.11-17.15,34.2-34.31a11.36,11.36,0,0,0,0-16.29Q233.29,69.08,216.13,52C211.4,47.26,205,47,200,51.12c-4.64,3.85-5.4,11.27-1.38,15.76,3.33,3.73,7,7.19,10.47,10.76C210.75,79.28,212.41,80.89,214.39,82.85Z"/></g></g></svg>