<svg xmlns="http://www.w3.org/2000/svg" viewBox="0 0 1079.73 1080.5"><defs><style>.cls-1{fill:#192029;}.cls-2{fill:#fff;}.cls-3{fill:#478fcc;}</style></defs><g id="Layer_2" data-name="Layer 2"><g id="Layer_1-2" data-name="Layer 1"><path class="cls-1" d="M35.07.45h505a0,0,0,0,1,0,0v540a0,0,0,0,1,0,0H.07a0,0,0,0,1,0,0v-505a35,35,0,0,1,35-35Z"/><path class="cls-2" d="M217.16,206.7V491.48H129.38V49.42H251.13L323,335.5V49.42h87.79V491.48H289.27Z"/><path class="cls-3" d="M539.73,0h505a35,35,0,0,1,35,35V540a0,0,0,0,1,0,0h-540a0,0,0,0,1,0,0V0A0,0,0,0,1,539.73,0Z"/><path class="cls-2" d="M774.33,394.75l-17,85.18H673L754.47,60.07H865.25L946.5,479.93H861.85l-16.46-85.18Zm15.15-77.59H830l-20.38-179Z"/><path class="cls-3" d="M0,540.5H540a0,0,0,0,1,0,0v540a0,0,0,0,1,0,0H35a35,35,0,0,1-35-35v-505A0,0,0,0,1,0,540.5Z"/><path class="cls-2" d="M147.08,600.57H331.27q25.08,0,43.1,16.46,18.56,17,18.55,40.76V766q0,48.06-36.83,77.33-34.48,27.44-86.22,27.43H230.42v149.71H147.08Zm83.34,77.6v115h39.45q39.45,0,39.45-27.17V678.17Z"/><path class="cls-1" d="M539.34,540.38h540a0,0,0,0,1,0,0v505a35,35,0,0,1-35,35h-505a0,0,0,0,1,0,0v-540A0,0,0,0,1,539.34,540.38Z"/><path class="cls-2" d="M982.72,600.38v420H907.55V743.61L855.2,1020.38H763.92l-52.8-276.77v276.77H636v-420H740.21L809.56,941.7l68.91-341.32Z"/></g></g></svg>