<svg xmlns="http://www.w3.org/2000/svg" viewBox="0 0 254.57 244"><defs><style>.cls-1{fill:#fff;}</style></defs><g id="Layer_2" data-name="Layer 2"><g id="Layer_1-2" data-name="Layer 1"><path class="cls-1" d="M77.15,26.52q33.16,0,66.33,0a1.66,1.66,0,0,0,1.9-1.3C150.85,10.66,161.29,2,176.75.25,188.59-1.09,198.84,3,207.11,11.68a35.07,35.07,0,0,1,8.17,13.65A1.48,1.48,0,0,0,217,26.55q13.29-.07,26.56,0a10.63,10.63,0,0,1,10.69,8.07c1.61,5.79-2.73,12.33-8.68,13a64.46,64.46,0,0,1-6.52.21c-7.2,0-14.39,0-21.59,0a2,2,0,0,0-2.31,1.58C210.47,61.76,201.83,70,188.86,73.19a36.6,36.6,0,0,1-43.27-23.63A2.27,2.27,0,0,0,143,47.74q-65.68.07-131.38,0c-4.64,0-8.26-1.73-10.47-6a10.57,10.57,0,0,1,7.4-15.07,18,18,0,0,1,3.11-.23ZM180.37,53a15.85,15.85,0,0,0,15.85-15.91,15.91,15.91,0,1,0-31.81.11A15.85,15.85,0,0,0,180.37,53Z"/><path class="cls-1" d="M77.26,196.19c21.87,0,43.74,0,65.62.05a2.47,2.47,0,0,0,2.76-2c5.11-13.23,14.58-21.55,28.58-24,17.74-3.09,34.45,6.88,40.73,23.8.78,2.09.78,2.09,3.05,2.09h25.14a10.88,10.88,0,0,1,8.91,3.89,10.56,10.56,0,0,1-6.12,17.13,14,14,0,0,1-3,.23c-8.66,0-17.32,0-26,0a1.51,1.51,0,0,0-1.69,1.22c-5,13.58-14.52,22.09-28.79,24.73-10.64,2-20.36-.69-28.93-7.37a36.15,36.15,0,0,1-12.21-17.4c-.4-1.18-1.09-1.16-2-1.16H24.89c-4.64,0-9.28,0-13.92,0-6.76-.05-11.5-5.22-10.82-11.93.5-4.87,4.66-9.36,11.35-9.34,18.42.06,36.83,0,55.25,0ZM180.35,191a15.85,15.85,0,0,0-15.94,15.82,15.91,15.91,0,1,0,31.81.08A15.85,15.85,0,0,0,180.35,191Z"/><path class="cls-1" d="M109.66,132.55A36.9,36.9,0,0,1,98,150.32c-9.28,7.69-20,10.54-31.73,7.84-13-3-21.82-11-26.67-23.41-1-2.7-.3-2.18-3.1-2.19-8.48,0-17,0-25.43,0-5.36,0-9.11-2.77-10.65-7.69-1.91-6.1,2.68-13,9.1-13.32,4.48-.23,9-.09,13.49-.1,4.73,0,9.47-.05,14.2,0a1.92,1.92,0,0,0,2.18-1.57c4.4-12.15,12.78-20.38,25.24-23.66,14.42-3.79,27,.13,37.09,11.13,3.92,4.25,5,6.48,8,14.07h1.78q65.7,0,131.4,0c3.83,0,7.09,1,9.44,4.19a10.55,10.55,0,0,1-7.18,16.86,24.28,24.28,0,0,1-2.7.08H109.66ZM58.34,121.9a15.9,15.9,0,1,0,16-15.82A15.94,15.94,0,0,0,58.34,121.9Z"/></g></g></svg>