<svg xmlns="http://www.w3.org/2000/svg" viewBox="0 0 253.98 254"><defs><style>.cls-1{fill:#aaa;}.cls-2{fill:#fff;}</style></defs><g id="Layer_2" data-name="Layer 2"><g id="Layer_1-2" data-name="Layer 1"><path class="cls-1" d="M157.52,166.58c0-2.72-1.8-4.29-4.52-4.35-1.47,0-2.94.05-4.4,0-5.8-.25-10-2.93-12.42-8.28-.56-1.24-1-2.52-1.57-3.78A13.28,13.28,0,0,1,137.42,135c1-1,2.1-2,3.1-3.12a4.26,4.26,0,0,0-.05-6.28q-6-6-12-12a4.23,4.23,0,0,0-6.38-.08c-1.15,1.07-2.2,2.24-3.34,3.31-3.78,3.49-8.18,4.71-13.12,3.19a41.6,41.6,0,0,1-6.89-2.88,12,12,0,0,1-6.55-8.87,52.6,52.6,0,0,1-.32-7c-.1-2.89-1.66-4.69-4.32-4.72q-8.8-.07-17.6,0a4,4,0,0,0-4.12,3.91c-.13,1.7-.06,3.42-.11,5.13a13,13,0,0,1-7.75,12,48.4,48.4,0,0,1-5.28,2.17,12.79,12.79,0,0,1-13.18-2.34c-1.31-1.08-2.46-2.37-3.69-3.56-2.38-2.34-4.65-2.36-7,0-3.84,3.82-7.69,7.66-11.51,11.5-2.21,2.23-2.23,4.57-.05,6.83,1.08,1.12,2.27,2.16,3.3,3.33a13,13,0,0,1,2.53,14.29c-.57,1.45-1.16,2.9-1.8,4.32A12.73,12.73,0,0,1,10.9,162a62.5,62.5,0,0,1-6.43.24c-2.63.09-4.34,1.48-4.38,4.11-.13,6-.11,11.93,0,17.89,0,2.47,1.81,4,4.31,4,1.57.06,3.13,0,4.7,0a13.23,13.23,0,0,1,9.23,3.82C21,194.6,22,198,23.21,201.19c1.89,4.88,1,9.41-2.37,13.41-1.17,1.38-2.54,2.58-3.78,3.89-1.88,2-2,4.33-.11,6.28Q23,231,29.19,237c1.9,1.85,4.32,1.74,6.29-.09,1.11-1,2.14-2.14,3.23-3.19a13.32,13.32,0,0,1,9.8-3.85c3.22,0,5.94,1.54,8.76,2.72,5.44,2.29,8.24,6.5,8.42,12.42,0,1.51,0,3,0,4.54.22,2.92,1.82,4.41,4.75,4.44,2.74,0,5.48,0,8.22,0s5.47,0,8.21,0c3.17,0,4.86-1.72,4.91-4.92,0-1.41,0-2.82,0-4.24.13-5.51,2.79-9.46,7.63-11.92a43.37,43.37,0,0,1,5.28-2.17,12.93,12.93,0,0,1,14,2.93c1.18,1.09,2.25,2.31,3.45,3.39a4.28,4.28,0,0,0,6.18-.08q6.12-6,12.14-12.13a4.26,4.26,0,0,0,0-6.29c-1.27-1.35-2.67-2.6-3.87-4a12.39,12.39,0,0,1-2.81-11.75,41.76,41.76,0,0,1,2.57-6.69,12.42,12.42,0,0,1,9.75-7.57,55.52,55.52,0,0,1,6.71-.27c2.8-.07,4.63-1.64,4.67-4.41Q157.66,175.23,157.52,166.58Zm-42.9,25.68c-3,6.77-7.64,10.88-13.26,15.46l0,0a39.78,39.78,0,0,1-21.85,7A38.34,38.34,0,0,1,52.4,204.67c-9.57-8.69-13.9-19.65-13-32.54C40.54,154.7,54,139.59,71.09,136.45a45.09,45.09,0,0,1,7.7-.8A33.22,33.22,0,0,1,84,136a39.32,39.32,0,0,1,10.18,2.83,40.12,40.12,0,0,1,16.23,12.77,39.22,39.22,0,0,1,5.13,9.18,38.53,38.53,0,0,1,2.27,8.5A41.66,41.66,0,0,1,114.62,192.26Z"/><path class="cls-2" d="M254,118.3c0,4.26,0,8.51,0,12.76-.1,6.6-3.74,11.4-9.93,13a16,16,0,0,1-3.91.42c-4.06,0-8.12,0-12.18,0-3,0-4.19,1-5.26,3.7-1.38,3.55-2.87,7.06-4.38,10.55-1.08,2.49-.87,4,1.05,6,3,3,5.95,5.94,8.9,8.94,5.7,5.78,5.69,13.56,0,19.31q-8.9,9-17.84,17.84c-5.63,5.59-13.43,5.63-19.11.07-4.68-4.58-9.3-9.23-13.93-13.86a4.46,4.46,0,0,1-.42-6.32c1.77-1.89,4.46-1.91,6.5.11,4.5,4.43,8.93,8.92,13.39,13.38,2.87,2.87,5,2.86,7.9,0q8.61-8.61,17.21-17.22c2.46-2.45,2.47-4.81.05-7.25-3-3-6-6-9-9.07a13,13,0,0,1-2.82-15.09c1.63-3.82,3.16-7.67,4.79-11.49A12.66,12.66,0,0,1,227,135.87c4.4-.13,8.8,0,13.2,0,3.19,0,5.07-1.78,5.09-5q0-12.61,0-25.23c0-3.14-1.81-4.89-4.95-4.93-4.74-.06-9.49.12-14.22-.14a12.1,12.1,0,0,1-11-7.74c-1.82-4.11-3.54-8.26-5.21-12.43a12.53,12.53,0,0,1,2.47-13.9c3.09-3.4,6.45-6.54,9.69-9.8,2.2-2.21,2.21-4.76,0-6.95L204.39,32q-3.63-3.62-7.26,0c-3,3-6.07,6.1-9.17,9.08-4.27,4.12-9.19,5.1-14.7,2.83Q167.37,41.5,161.5,39c-5.38-2.29-8.07-6.47-8.23-12.23-.12-4.35,0-8.7,0-13,0-3.25-1.7-5-5-5q-12.61,0-25.23,0c-3.15,0-4.88,1.78-4.92,4.95,0,4.79.11,9.59-.14,14.37a11.87,11.87,0,0,1-7.36,10.64c-4.43,2-8.95,3.93-13.52,5.63a11.91,11.91,0,0,1-12.72-2.39c-3.53-3.17-6.8-6.61-10.18-9.93-2.39-2.35-4.78-2.35-7.14,0L49.53,49.51C47,52.07,47,54.41,49.57,57c4.42,4.43,8.86,8.84,13.27,13.28,1.84,1.85,2.2,4.07,1,5.82a4.33,4.33,0,0,1-6.66.79C52,71.81,46.82,66.78,42,61.43c-4.47-4.91-4-12.51.83-17.45q9.33-9.54,18.89-18.86a13.08,13.08,0,0,1,18.38.34c3,3,6,6,9,9,2.15,2.15,3.64,2.32,6.45,1.08,3.39-1.5,6.83-2.91,10.29-4.25,2.54-1,3.66-2.41,3.68-5.18,0-4.15,0-8.31,0-12.46C109.52,5.57,115,0,123.12,0q12.62,0,25.23,0c8,0,13.63,5.7,13.65,13.7,0,4.25,0,8.51,0,12.76,0,2.48.94,3.75,3.23,4.68q5.56,2.27,11.09,4.61c2.4,1,3.95.78,5.84-1.08,3.2-3.16,6.37-6.36,9.59-9.5a12.72,12.72,0,0,1,17.55-.42q10.26,9.75,20,20a12.59,12.59,0,0,1-.17,17.11c-3.07,3.29-6.3,6.42-9.46,9.62-2.3,2.34-2.5,3.71-1.19,6.7q2.2,5,4.2,10.15c1,2.65,2.18,3.6,5,3.62,4.11,0,8.21,0,12.32,0,8.45,0,13.91,5.51,13.94,14C254,110.09,254,114.2,254,118.3Z"/><path class="cls-2" d="M134,61.39a5.35,5.35,0,0,1,.8,0c17.76.4,31.81,6.36,42.87,18.57,12.38,13.67,16.93,29.85,14,48.06a54.92,54.92,0,0,1-15.42,30.17c-2.69,2.76-6.43,2-7.59-1.43-.61-1.84.15-3.3,1.36-4.66a69.76,69.76,0,0,0,5.29-6.26A47.55,47.55,0,0,0,183,107.73a48,48,0,0,0-40.23-37.37,47.17,47.17,0,0,0-34.15,8c-2,1.39-5,4-6.88,5.68-2,1.81-4.52,1.84-6.27,0a4.23,4.23,0,0,1,.25-6.26,55.25,55.25,0,0,1,30.42-15.55C129.12,61.76,132.13,61.57,134,61.39Z"/></g></g></svg>