<svg xmlns="http://www.w3.org/2000/svg" viewBox="0 0 211.01 253"><defs><style>.cls-1{fill:#c1c1c1;}</style></defs><g id="Layer_2" data-name="Layer 2"><g id="Layer_1-2" data-name="Layer 1"><path class="cls-1" d="M41.78,253c-1.59-.17-3.17-.31-4.75-.52-13.92-1.92-24.92-8.38-31.92-20.84C1.25,224.77,0,217.22,0,209.46a160.68,160.68,0,0,1,4.23-38.9c2.52-10.41,6.33-20.27,12.71-29,8.71-11.92,20.51-18.12,35.16-19.28a18,18,0,0,1,11.73,3.08c4.39,2.9,8.77,5.86,13.37,8.41,9.94,5.54,20.59,8.51,32.06,7.63a59.3,59.3,0,0,0,26.66-8.82c4.86-3,9.65-6,14.51-9a10.68,10.68,0,0,1,5.83-1.37,47.22,47.22,0,0,1,28,9.14,48.45,48.45,0,0,1,12,13.33c6,9.32,9.37,19.63,11.57,30.4A157.51,157.51,0,0,1,210.89,213c-.8,20.1-13.71,34.44-31.89,38.57-3.23.74-6.58,1-9.88,1.45Zm63.66-14.83c19.9,0,39.81,0,59.71,0a53.55,53.55,0,0,0,9.13-.73c8.09-1.45,14.55-5.47,18.6-12.83,2.65-4.83,3.39-10.13,3.34-15.56a161.16,161.16,0,0,0-2-25.86c-1.48-8.55-3.44-16.95-7.3-24.8a44.09,44.09,0,0,0-9.41-13.28,31.14,31.14,0,0,0-17.63-7.84,7.69,7.69,0,0,0-5.82,1.25c-3.37,2.38-6.9,4.56-10.43,6.72a74.17,74.17,0,0,1-32.75,10.94c-14.87,1.28-28.64-2.54-41.51-9.78-4.75-2.67-9.24-5.79-13.87-8.69a3,3,0,0,0-1.52-.62c-8.16.42-15.5,2.95-21.35,8.89a50.06,50.06,0,0,0-11.19,18.59,114.07,114.07,0,0,0-5.9,28.66,114.71,114.71,0,0,0-.36,21.69A25.06,25.06,0,0,0,32.9,236.5a43.15,43.15,0,0,0,12.82,1.67Q75.57,238.19,105.44,238.17Z"/><path class="cls-1" d="M108.13,0c2.32.32,4.66.57,7,1,14.13,2.53,25.69,9.52,35.06,20.29C161.27,34.05,165.73,49,164.71,65.75c-1.54,25.16-20.11,46.52-42.39,53.44a62.31,62.31,0,0,1-28.9,1.8C69,117,48.71,97.36,44.15,73.07c-3.26-17.35-.23-33.6,10.42-47.92C64.63,11.64,77.93,3.12,94.8.61,96.41.37,98,.2,99.66,0Zm41.92,60.89c.48-25-21.06-46.23-46.23-46.17S57.69,36.22,57.7,61c0,25.31,21.83,47,47.75,46.19C128.66,106.44,150.49,86.45,150.05,60.89Z"/></g></g></svg>