<svg xmlns="http://www.w3.org/2000/svg" viewBox="0 0 246.95 247.12"><defs><style>.cls-1{fill:#363636;}</style></defs><g id="Layer_2" data-name="Layer 2"><g id="Layer_1-2" data-name="Layer 1"><path class="cls-1" d="M231.76,0c4,1.05,8,2,10.85,5.34,6.1,7.22,5.77,16-1,23-3.46,3.56-7,7-10.54,10.54q-41.29,41.22-82.61,82.43a33.42,33.42,0,0,1-3.28,2.42,29,29,0,0,1,3.45,2.41q46.26,46.2,92.48,92.44c4.8,4.79,7.1,10.3,5.2,17.07-3,10.79-16.54,15.06-25.17,8-1.15-1-2.25-2-3.31-3q-46.14-46.12-92.26-92.27a27,27,0,0,1-2-2.56c-1.08,1.28-1.74,2.2-2.54,3q-46.3,46.35-92.65,92.67c-6,6-13.41,7.38-20.19,3.66-4.6-2.52-6.85-6.74-8.15-11.6V229c1-5.11,4.22-8.78,7.79-12.34Q53.17,171.36,98.47,126a17.67,17.67,0,0,1,3.31-2c-1.85-1.58-2.76-2.26-3.55-3.06Q53.07,75.94,7.89,30.88C4.31,27.32,1.15,23.62,0,18.56v-4.5A45.36,45.36,0,0,1,1.86,8.89C4.58,3.41,9.49,1.09,15.19,0h1.69C23,.74,27,4.62,31.12,8.73q45.33,45.48,90.8,90.81c.51.5,1,1,1.76,1.65.59-.7,1-1.32,1.55-1.85Q170.55,54,215.83,8.73c4.09-4.11,8.17-8,14.25-8.73Z"/></g></g></svg>